<svg width="55" height="55" viewBox="0 0 55 55" fill="none" xmlns="http://www.w3.org/2000/svg">
<path fill-rule="evenodd" clip-rule="evenodd" d="M0.458497 4.97675C0.458497 3.77839 0.934543 2.62912 1.78191 1.78175C2.62928 0.93438 3.77856 0.458334 4.97691 0.458334H50.0185C50.6124 0.457364 51.2006 0.573539 51.7495 0.800207C52.2984 1.02687 52.7972 1.35958 53.2174 1.77929C53.6376 2.19899 53.9708 2.69744 54.1981 3.24611C54.4253 3.79478 54.5422 4.38288 54.5418 4.97675V50.0183C54.5425 50.6123 54.426 51.2006 54.1991 51.7495C53.9721 52.2985 53.6392 52.7973 53.2193 53.2174C52.7994 53.6375 52.3008 53.9707 51.752 54.198C51.2032 54.4252 50.6149 54.542 50.021 54.5417H4.97691C4.38334 54.5417 3.79558 54.4247 3.24722 54.1975C2.69886 53.9703 2.20065 53.6372 1.78104 53.2174C1.36143 52.7976 1.02866 52.2992 0.801735 51.7507C0.574808 51.2022 0.458174 50.6144 0.458497 50.0208V4.97675ZM21.8657 21.0788H29.189V24.7565C30.2461 22.6423 32.9503 20.7396 37.0139 20.7396C44.8044 20.7396 46.6506 24.9507 46.6506 32.6773V46.9897H38.7667V34.4374C38.7667 30.037 37.7096 27.5541 35.0251 27.5541C31.3007 27.5541 29.752 30.2312 29.752 34.4374V46.9897H21.8657V21.0788ZM8.34483 46.6529H16.2312V20.7396H8.34483V46.6504V46.6529ZM17.3595 12.2878C17.3744 12.9631 17.2543 13.6345 17.0061 14.2626C16.758 14.8908 16.3869 15.4631 15.9146 15.9459C15.4423 16.4287 14.8783 16.8123 14.2558 17.0742C13.6332 17.3361 12.9646 17.471 12.2892 17.471C11.6138 17.471 10.9452 17.3361 10.3227 17.0742C9.70011 16.8123 9.13614 16.4287 8.66385 15.9459C8.19155 15.4631 7.82045 14.8908 7.57232 14.2626C7.3242 13.6345 7.20404 12.9631 7.21891 12.2878C7.2481 10.9624 7.79511 9.70115 8.7428 8.77411C9.69049 7.84705 10.9635 7.32794 12.2892 7.32794C13.6149 7.32794 14.888 7.84705 15.8357 8.77411C16.7833 9.70115 17.3304 10.9624 17.3595 12.2878Z" fill="#F8F8F8"/>
</svg>
