<svg width="60" height="48" viewBox="0 0 60 48" fill="none" xmlns="http://www.w3.org/2000/svg">
<path d="M59.0781 5.75387C56.921 6.7097 54.6037 7.35553 52.1676 7.64745C54.6812 6.14341 56.5618 3.77624 57.4583 0.987616C55.0967 2.39034 52.5121 3.3777 49.8168 3.90678C48.0043 1.97152 45.6036 0.688792 42.9873 0.257757C40.3711 -0.173277 37.6857 0.271494 35.3482 1.52302C33.0106 2.77454 31.1517 4.7628 30.0599 7.1791C28.9681 9.5954 28.7046 12.3046 29.3103 14.8859C24.5252 14.6457 19.844 13.402 15.5707 11.2355C11.2973 9.06896 7.52724 6.02812 4.50515 2.31028C3.47181 4.09278 2.87765 6.15945 2.87765 8.36045C2.8765 10.3419 3.36443 12.2929 4.29817 14.0405C5.2319 15.7881 6.58256 17.2782 8.23031 18.3786C6.31936 18.3178 4.45057 17.8015 2.77948 16.8725V17.0275C2.77929 19.8065 3.74057 22.5 5.5002 24.6509C7.25984 26.8019 9.70946 28.2778 12.4334 28.8282C10.6607 29.308 8.8021 29.3786 6.99806 29.0349C7.7666 31.426 9.26364 33.517 11.2796 35.0151C13.2956 36.5132 15.7295 37.3433 18.2407 37.3894C13.9778 40.7358 8.71311 42.5511 3.29357 42.5431C2.33355 42.5434 1.37435 42.4873 0.420898 42.3752C5.92204 45.9122 12.3258 47.7894 18.8659 47.7821C41.0051 47.7821 53.108 29.4456 53.108 13.5426C53.108 13.0259 53.0951 12.5041 53.0718 11.9874C55.426 10.285 57.4581 8.17676 59.0729 5.76162L59.0781 5.75387Z" fill="#F8F8F8"/>
</svg>
