<svg width="44" height="44" viewBox="0 0 44 44" fill="none" xmlns="http://www.w3.org/2000/svg">
<path d="M22 3.66667C11.88 3.66667 3.66669 11.88 3.66669 22C3.66669 32.12 11.88 40.3333 22 40.3333C32.12 40.3333 40.3334 32.12 40.3334 22C40.3334 11.88 32.12 3.66667 22 3.66667ZM22 11C25.5384 11 28.4167 13.8783 28.4167 17.4167C28.4167 20.955 25.5384 23.8333 22 23.8333C18.4617 23.8333 15.5834 20.955 15.5834 17.4167C15.5834 13.8783 18.4617 11 22 11ZM22 36.6667C18.2784 36.6667 13.8784 35.1633 10.7434 31.3867C13.9546 28.8672 17.9183 27.4978 22 27.4978C26.0817 27.4978 30.0454 28.8672 33.2567 31.3867C30.1217 35.1633 25.7217 36.6667 22 36.6667Z" fill="#121212"/>
</svg>
