<svg width="79" height="72" viewBox="0 0 79 72" fill="none" xmlns="http://www.w3.org/2000/svg">
<g clip-path="url(#clip0_41_12)">
<path d="M31.9298 40.6093C31.3763 39.8727 30.7438 39.1985 30.0436 38.5987H19.17C20.8142 39.0913 22.3076 39.9884 23.5124 41.2075C25.6878 43.4794 26.7755 47.0667 26.7755 51.9692C26.7755 57.0259 25.6962 60.5177 23.5376 62.4445C21.379 64.3714 17.5057 65.3331 11.9176 65.3298H8.19554V37.8196V32.0893V6.65509H13.5516C17.662 6.65509 20.6124 7.61013 22.3675 9.54032C24.1226 11.4705 25.0153 14.7227 25.0153 19.337C25.0153 23.9514 24.0924 27.1834 22.2414 29.1538C21.6218 29.8103 20.8912 30.3531 20.0829 30.7573H29.4989C29.7713 30.4306 30.0487 30.0888 30.2958 29.752C32.2728 26.9773 33.2596 23.3515 33.2563 18.8746C33.2563 12.6987 31.6373 8.17478 28.3995 5.30295C25.1616 2.43113 20.1333 0.99187 13.3146 0.985168H0V71.0449H12.9969C20.3939 71.0449 25.9315 69.4901 29.6099 66.3803C33.2882 63.2706 35.124 58.5942 35.1173 52.3513C35.1173 47.3549 34.0548 43.4409 31.9298 40.6093Z" fill="#35576E"/>
<path d="M78.995 13.1142L71.4954 15.5621C70.5573 12.4557 69.1956 10.11 67.4103 8.52497C65.6213 6.92488 63.2871 6.06552 60.8841 6.12229C56.4896 6.12229 53.2265 8.57188 51.0948 13.4711C48.9631 18.3703 47.8973 25.8648 47.8973 35.9547C47.8973 46.678 48.906 54.3853 50.9234 59.0768C52.9407 63.7682 56.224 66.1139 60.7731 66.1139C64.2665 66.1139 66.8471 64.8891 68.5147 62.4395C70.1824 59.9899 71.023 56.1547 71.0365 50.9338V40.2524H58.6347V34.3412H78.995V50.0994C78.995 57.3979 77.4399 62.8735 74.3298 66.5261C71.2197 70.1787 66.5764 72.0033 60.3999 72C53.1643 72 47.8805 69.1416 44.5485 63.4247C41.2165 57.7079 39.5488 48.5747 39.5454 36.0251C39.5454 23.7604 41.324 14.6892 44.8813 8.81148C48.4386 2.9338 53.9376 -0.00337241 61.3783 -2.13878e-05C65.2434 -0.0905346 69.0292 1.10116 72.141 3.38786C75.167 5.64309 77.4517 8.8852 78.995 13.1142Z" fill="#35576E"/>
</g>
<defs>
<clipPath id="clip0_41_12">
<rect width="79" height="72" fill="white"/>
</clipPath>
</defs>
</svg>
