<svg width="32" height="34" viewBox="0 0 32 34" fill="none" xmlns="http://www.w3.org/2000/svg">
<g clip-path="url(#clip0_12_6)">
<path d="M27.4348 25.5435C26.6522 25.674 25.8551 25.7392 25.0435 25.7392C22.4058 25.7392 19.9638 25.087 17.7174 23.7827C15.471 22.4783 13.6957 20.703 12.3913 18.4566C11.087 16.2102 10.4348 13.7682 10.4348 11.1305C10.4348 8.34789 11.1884 5.76093 12.6957 3.36962C9.78261 4.23919 7.40217 5.89861 5.55435 8.34789C3.70652 10.7972 2.78261 13.5798 2.78261 16.6957C2.78261 18.5798 3.15217 20.3805 3.8913 22.0979C4.63043 23.8153 5.61957 25.2935 6.8587 26.5327C8.09783 27.7718 9.57609 28.7609 11.2935 29.5001C13.0109 30.2392 14.8116 30.6088 16.6957 30.6088C18.7826 30.6088 20.7645 30.1631 22.6413 29.2718C24.5181 28.3805 26.1159 27.1377 27.4348 25.5435ZM31.8478 23.6957C30.4855 26.6377 28.4312 28.9892 25.6848 30.7501C22.9384 32.5109 19.942 33.3914 16.6957 33.3914C14.4348 33.3914 12.2754 32.9493 10.2174 32.0653C8.15942 31.1812 6.38406 29.9928 4.8913 28.5001C3.39855 27.0073 2.21014 25.2319 1.32609 23.174C0.442029 21.116 0 18.9566 0 16.6957C0 14.4783 0.416667 12.3588 1.25 10.337C2.08333 8.31528 3.21377 6.56528 4.6413 5.08702C6.06884 3.60875 7.77536 2.41673 9.76087 1.51093C11.7464 0.605131 13.8478 0.108754 16.0652 0.0217976C16.7029 -0.00718787 17.1449 0.275421 17.3913 0.869624C17.6522 1.46383 17.5435 1.98557 17.0652 2.43484C15.8188 3.56528 14.8659 4.88049 14.2065 6.38049C13.5471 7.88049 13.2174 9.46383 13.2174 11.1305C13.2174 13.2754 13.7464 15.2537 14.8043 17.0653C15.8623 18.8769 17.2971 20.3117 19.1087 21.3696C20.9203 22.4276 22.8986 22.9566 25.0435 22.9566C26.7536 22.9566 28.4058 22.587 30 21.8479C30.5942 21.587 31.1159 21.6812 31.5652 22.1305C31.7681 22.3334 31.8949 22.5798 31.9457 22.8696C31.9964 23.1595 31.9638 23.4348 31.8478 23.6957Z" fill="#121212"/>
</g>
<defs>
<clipPath id="clip0_12_6">
<rect width="32" height="33.3913" fill="white"/>
</clipPath>
</defs>
</svg>
